<mxfile host="app.diagrams.net" modified="2021-06-02T15:47:58.254Z" agent="5.0 (Windows NT 10.0; Win64; x64) AppleWebKit/537.36 (KHTML, like Gecko) Chrome/91.0.4472.77 Safari/537.36" etag="is2YuGSKOSPIPZusQI_f" version="14.7.3" type="github">
  <diagram id="fNQHtgPg22Nrxrzsn0tR" name="Page-1">
    <mxGraphModel dx="1123" dy="668" grid="1" gridSize="10" guides="1" tooltips="1" connect="1" arrows="1" fold="1" page="1" pageScale="1" pageWidth="827" pageHeight="1169" math="0" shadow="0">
      <root>
        <mxCell id="0" />
        <mxCell id="1" parent="0" />
        <mxCell id="mwaDkOQoTP_Vvtzit_NG-17" value="选项" style="rounded=0;whiteSpace=wrap;html=1;" vertex="1" parent="1">
          <mxGeometry x="250" y="300" width="400" height="100" as="geometry" />
        </mxCell>
        <mxCell id="mwaDkOQoTP_Vvtzit_NG-2" value="32比特" style="text;html=1;strokeColor=none;fillColor=none;align=center;verticalAlign=middle;whiteSpace=wrap;rounded=0;" vertex="1" parent="1">
          <mxGeometry x="417" y="140" width="66" height="20" as="geometry" />
        </mxCell>
        <mxCell id="mwaDkOQoTP_Vvtzit_NG-3" value="" style="endArrow=none;html=1;exitX=0;exitY=0;exitDx=0;exitDy=0;" edge="1" parent="1">
          <mxGeometry width="50" height="50" relative="1" as="geometry">
            <mxPoint x="250" y="200" as="sourcePoint" />
            <mxPoint x="250" y="140" as="targetPoint" />
          </mxGeometry>
        </mxCell>
        <mxCell id="mwaDkOQoTP_Vvtzit_NG-5" value="" style="endArrow=none;html=1;exitX=0;exitY=0;exitDx=0;exitDy=0;" edge="1" parent="1">
          <mxGeometry width="50" height="50" relative="1" as="geometry">
            <mxPoint x="650" y="200" as="sourcePoint" />
            <mxPoint x="650" y="140" as="targetPoint" />
          </mxGeometry>
        </mxCell>
        <mxCell id="mwaDkOQoTP_Vvtzit_NG-6" value="" style="endArrow=classic;html=1;exitX=0;exitY=0.5;exitDx=0;exitDy=0;" edge="1" parent="1" source="mwaDkOQoTP_Vvtzit_NG-2">
          <mxGeometry width="50" height="50" relative="1" as="geometry">
            <mxPoint x="390" y="430" as="sourcePoint" />
            <mxPoint x="250" y="150" as="targetPoint" />
          </mxGeometry>
        </mxCell>
        <mxCell id="mwaDkOQoTP_Vvtzit_NG-7" value="" style="endArrow=classic;html=1;exitX=1;exitY=0.5;exitDx=0;exitDy=0;" edge="1" parent="1" source="mwaDkOQoTP_Vvtzit_NG-2">
          <mxGeometry width="50" height="50" relative="1" as="geometry">
            <mxPoint x="470" y="160" as="sourcePoint" />
            <mxPoint x="650" y="150" as="targetPoint" />
          </mxGeometry>
        </mxCell>
        <mxCell id="mwaDkOQoTP_Vvtzit_NG-8" value="源端口号" style="rounded=0;whiteSpace=wrap;html=1;" vertex="1" parent="1">
          <mxGeometry x="250" y="200" width="200" height="20" as="geometry" />
        </mxCell>
        <mxCell id="mwaDkOQoTP_Vvtzit_NG-9" value="目的端口号" style="rounded=0;whiteSpace=wrap;html=1;" vertex="1" parent="1">
          <mxGeometry x="450" y="200" width="200" height="20" as="geometry" />
        </mxCell>
        <mxCell id="mwaDkOQoTP_Vvtzit_NG-10" value="序号" style="rounded=0;whiteSpace=wrap;html=1;" vertex="1" parent="1">
          <mxGeometry x="250" y="220" width="400" height="20" as="geometry" />
        </mxCell>
        <mxCell id="mwaDkOQoTP_Vvtzit_NG-11" value="确认号" style="rounded=0;whiteSpace=wrap;html=1;" vertex="1" parent="1">
          <mxGeometry x="250" y="240" width="400" height="20" as="geometry" />
        </mxCell>
        <mxCell id="mwaDkOQoTP_Vvtzit_NG-12" value="接收窗口" style="rounded=0;whiteSpace=wrap;html=1;" vertex="1" parent="1">
          <mxGeometry x="450" y="260" width="200" height="20" as="geometry" />
        </mxCell>
        <mxCell id="mwaDkOQoTP_Vvtzit_NG-19" style="edgeStyle=orthogonalEdgeStyle;shape=link;rounded=0;orthogonalLoop=1;jettySize=auto;html=1;exitX=0.5;exitY=0;exitDx=0;exitDy=0;entryX=0.5;entryY=0;entryDx=0;entryDy=0;" edge="1" parent="1" source="mwaDkOQoTP_Vvtzit_NG-13" target="mwaDkOQoTP_Vvtzit_NG-14">
          <mxGeometry relative="1" as="geometry" />
        </mxCell>
        <mxCell id="mwaDkOQoTP_Vvtzit_NG-20" style="edgeStyle=orthogonalEdgeStyle;shape=link;rounded=0;orthogonalLoop=1;jettySize=auto;html=1;exitX=0.75;exitY=0;exitDx=0;exitDy=0;entryX=0.75;entryY=0;entryDx=0;entryDy=0;" edge="1" parent="1" source="mwaDkOQoTP_Vvtzit_NG-13" target="mwaDkOQoTP_Vvtzit_NG-14">
          <mxGeometry relative="1" as="geometry" />
        </mxCell>
        <mxCell id="mwaDkOQoTP_Vvtzit_NG-22" style="edgeStyle=orthogonalEdgeStyle;shape=link;rounded=0;orthogonalLoop=1;jettySize=auto;html=1;exitX=0.75;exitY=0;exitDx=0;exitDy=0;entryX=0.75;entryY=0;entryDx=0;entryDy=0;" edge="1" parent="1" source="mwaDkOQoTP_Vvtzit_NG-13" target="mwaDkOQoTP_Vvtzit_NG-14">
          <mxGeometry relative="1" as="geometry" />
        </mxCell>
        <mxCell id="mwaDkOQoTP_Vvtzit_NG-23" style="edgeStyle=orthogonalEdgeStyle;shape=link;rounded=0;orthogonalLoop=1;jettySize=auto;html=1;exitX=0.75;exitY=0;exitDx=0;exitDy=0;entryX=0.75;entryY=0;entryDx=0;entryDy=0;" edge="1" parent="1" source="mwaDkOQoTP_Vvtzit_NG-13" target="mwaDkOQoTP_Vvtzit_NG-14">
          <mxGeometry relative="1" as="geometry" />
        </mxCell>
        <mxCell id="mwaDkOQoTP_Vvtzit_NG-24" style="edgeStyle=orthogonalEdgeStyle;shape=link;rounded=0;orthogonalLoop=1;jettySize=auto;html=1;exitX=0.75;exitY=0;exitDx=0;exitDy=0;entryX=0.75;entryY=0;entryDx=0;entryDy=0;" edge="1" parent="1" source="mwaDkOQoTP_Vvtzit_NG-13" target="mwaDkOQoTP_Vvtzit_NG-14">
          <mxGeometry relative="1" as="geometry" />
        </mxCell>
        <mxCell id="mwaDkOQoTP_Vvtzit_NG-25" style="edgeStyle=orthogonalEdgeStyle;shape=link;rounded=0;orthogonalLoop=1;jettySize=auto;html=1;exitX=0.75;exitY=0;exitDx=0;exitDy=0;entryX=0.75;entryY=0;entryDx=0;entryDy=0;" edge="1" parent="1" source="mwaDkOQoTP_Vvtzit_NG-13" target="mwaDkOQoTP_Vvtzit_NG-14">
          <mxGeometry relative="1" as="geometry" />
        </mxCell>
        <mxCell id="mwaDkOQoTP_Vvtzit_NG-26" style="edgeStyle=orthogonalEdgeStyle;shape=link;rounded=0;orthogonalLoop=1;jettySize=auto;html=1;exitX=0.75;exitY=0;exitDx=0;exitDy=0;entryX=0.75;entryY=0;entryDx=0;entryDy=0;" edge="1" parent="1" source="mwaDkOQoTP_Vvtzit_NG-13" target="mwaDkOQoTP_Vvtzit_NG-14">
          <mxGeometry relative="1" as="geometry" />
        </mxCell>
        <mxCell id="mwaDkOQoTP_Vvtzit_NG-27" style="edgeStyle=orthogonalEdgeStyle;shape=link;rounded=0;orthogonalLoop=1;jettySize=auto;html=1;exitX=0.75;exitY=0;exitDx=0;exitDy=0;entryX=0.75;entryY=0;entryDx=0;entryDy=0;width=60;" edge="1" parent="1" source="mwaDkOQoTP_Vvtzit_NG-13" target="mwaDkOQoTP_Vvtzit_NG-14">
          <mxGeometry relative="1" as="geometry" />
        </mxCell>
        <mxCell id="mwaDkOQoTP_Vvtzit_NG-13" value="" style="rounded=0;whiteSpace=wrap;html=1;" vertex="1" parent="1">
          <mxGeometry x="250" y="260" width="200" height="20" as="geometry" />
        </mxCell>
        <mxCell id="mwaDkOQoTP_Vvtzit_NG-14" value="" style="rounded=0;whiteSpace=wrap;html=1;" vertex="1" parent="1">
          <mxGeometry x="250" y="280" width="200" height="20" as="geometry" />
        </mxCell>
        <mxCell id="mwaDkOQoTP_Vvtzit_NG-15" value="紧急数据指针" style="rounded=0;whiteSpace=wrap;html=1;" vertex="1" parent="1">
          <mxGeometry x="450" y="280" width="200" height="20" as="geometry" />
        </mxCell>
        <mxCell id="mwaDkOQoTP_Vvtzit_NG-29" value="&lt;font style=&quot;font-size: 10px&quot;&gt;首部长度&lt;/font&gt;" style="rounded=0;whiteSpace=wrap;html=1;" vertex="1" parent="1">
          <mxGeometry x="250" y="260" width="50" height="20" as="geometry" />
        </mxCell>
        <mxCell id="mwaDkOQoTP_Vvtzit_NG-30" value="保留未用" style="rounded=0;whiteSpace=wrap;html=1;" vertex="1" parent="1">
          <mxGeometry x="300" y="260" width="50" height="20" as="geometry" />
        </mxCell>
        <mxCell id="mwaDkOQoTP_Vvtzit_NG-31" value="" style="rounded=0;whiteSpace=wrap;html=1;" vertex="1" parent="1">
          <mxGeometry x="350" y="260" width="20" height="20" as="geometry" />
        </mxCell>
        <mxCell id="mwaDkOQoTP_Vvtzit_NG-32" value="" style="rounded=0;whiteSpace=wrap;html=1;" vertex="1" parent="1">
          <mxGeometry x="370" y="260" width="20" height="20" as="geometry" />
        </mxCell>
        <mxCell id="mwaDkOQoTP_Vvtzit_NG-33" value="。。。" style="rounded=0;whiteSpace=wrap;html=1;" vertex="1" parent="1">
          <mxGeometry x="390" y="260" width="20" height="20" as="geometry" />
        </mxCell>
        <mxCell id="mwaDkOQoTP_Vvtzit_NG-34" value="" style="rounded=0;whiteSpace=wrap;html=1;" vertex="1" parent="1">
          <mxGeometry x="410" y="260" width="20" height="20" as="geometry" />
        </mxCell>
        <mxCell id="mwaDkOQoTP_Vvtzit_NG-35" value="数据" style="rounded=0;whiteSpace=wrap;html=1;" vertex="1" parent="1">
          <mxGeometry x="250" y="400" width="400" height="100" as="geometry" />
        </mxCell>
      </root>
    </mxGraphModel>
  </diagram>
</mxfile>
